<svg width="1496" height="578" viewBox="0 0 1496 578" fill="none" xmlns="http://www.w3.org/2000/svg">
<g filter="url(#filter0_f_7121_11243)">
<path d="M1494.6 1.54517H1V576.504H1494.6V1.54517Z" fill="black"/>
<path d="M747.653 576.504L650.58 569.862H1V1H1494.6V569.862H845.915L747.653 576.504Z" fill="#24002E"/>
<path d="M747.653 576.504C711.777 576.455 662.721 566.045 636.458 559.799C624.219 556.875 611.682 555.189 599.096 555.189H1V1H1494.6V555.189H897.4C884.814 555.189 872.327 556.875 860.087 559.799C833.626 566.045 783.925 576.554 747.653 576.504Z" fill="#3D014C"/>
<path d="M747.653 576.504L606.826 536.898C598.104 534.469 589.086 533.23 580.018 533.23H1V1H1494.6V533.23H916.379C907.36 533.23 898.441 534.469 889.769 536.898L747.653 576.504Z" fill="#4A015D"/>
<path d="M747.653 576.504L578.482 510.676C567.035 506.214 554.845 503.934 542.556 503.934H1V1H1494.6V503.885H953.84C941.601 503.885 929.51 506.165 918.063 510.577L747.653 576.504Z" fill="#59016F"/>
<path d="M747.653 576.504L548.453 483.858C535.371 477.761 521.1 474.639 506.681 474.639H1V1H1494.6V474.589H989.666C975.296 474.589 961.075 477.712 948.042 483.759L747.653 576.504Z" fill="#680171"/>
<path d="M747.653 576.504L526.997 450.895C512.082 442.418 495.184 437.907 477.99 437.907H1V1H1494.6V437.957H1018.36C1001.21 437.957 984.414 442.369 969.498 450.845L747.653 576.504Z" fill="#81038C"/>
<path d="M747.653 576.504L512.776 421.351C496.572 410.644 477.593 404.944 458.169 404.944H1V1H1494.6V404.993H1038.18C1018.8 404.993 999.924 410.644 983.72 421.302L747.653 576.504Z" fill="#9600A3"/>
<path d="M747.653 576.504L489.288 393.84C472.539 382.042 452.57 375.648 432.104 375.648H430.667H1V1H1494.6V375.648H1064.94H1064.29C1043.88 375.648 1023.96 381.943 1007.26 393.741L747.653 576.504Z" fill="#B005BF"/>
<path opacity="0.06" d="M747.653 576.504L460.349 349.326C451.876 342.634 441.42 339.016 430.667 339.016L1 1H1494.6L1064.94 339.016C1054.73 339.016 1044.82 342.436 1036.79 348.781L747.653 576.504Z" fill="#FF5C00"/>
<path d="M747.653 576.504L460.349 349.326C451.876 342.634 441.42 339.016 430.667 339.016H1V1H1494.6V339.016H1064.94C1054.73 339.016 1044.82 342.436 1036.79 348.781L747.653 576.504Z" fill="#CC04DF"/>
<path d="M747.653 576.504L445.583 315.272C441.42 311.703 436.118 309.72 430.667 309.72H1V1H1494.6V309.72H1064.94C1060.03 309.72 1055.27 311.505 1051.56 314.677L747.653 576.504Z" fill="#E302DA"/>
<path d="M747.653 576.504L459.11 289.397C451.578 281.862 441.321 277.648 430.667 277.648H1V1H1494.6V277.648H1064.94C1054.83 277.648 1045.16 281.614 1037.98 288.752L747.653 576.504Z" fill="#F004D8"/>
<path d="M747.653 577L458.764 254.053C451.628 246.073 441.42 241.512 430.717 241.512H1V1.49561H1494.6V241.512H1064.94C1054.93 241.512 1045.36 245.775 1038.62 253.211L747.653 577Z" fill="#FD04C6"/>
<path d="M747.653 576.504L483.54 230.508C470.953 214.051 451.43 204.335 430.667 204.335H1V1H1494.6V204.384H1064.94C1049.87 204.384 1035.6 211.324 1026.24 223.171L747.653 576.504Z" fill="#FD04A9"/>
<path d="M747.653 576.504L494.937 208.846C480.368 187.68 456.336 175.039 430.667 175.039H1V1H1494.6V175.039H1064.94C1044.87 175.039 1025.99 184.755 1014.39 201.162L747.653 576.504Z" fill="#F90086"/>
<path d="M747.653 576.504L516.839 193.677C498.901 163.936 466.692 145.744 431.956 145.744H430.618H1V1H1494.6V135.83H1064.94C1034.91 135.83 1007.01 161.209 991.054 186.688L747.653 576.504Z" fill="#F9005A"/>
<path d="M747.653 576.504L532.15 169.19C514.956 136.722 481.26 116.448 444.542 116.448H1V1H1494.6V116.398H1058.99C1022.82 116.398 989.518 136.077 972.125 167.802L747.653 576.504Z" fill="#FF133E"/>
<path d="M747.653 576.504L549.642 122C541.813 103.808 519.812 92.0595 484.333 92.0595H1V1H1494.6V87.1026L1014.74 92.0595C981.589 92.0595 962.71 103.51 954.682 121.306L747.653 576.504Z" fill="#FB3232"/>
<path d="M747.653 576.504L592.456 131.567C578.581 91.7621 541.02 65.0936 498.901 65.0936H1V1H1494.6V65.1432H1004.53C962.958 65.1432 925.793 91.0682 911.473 130.129L747.653 576.504Z" fill="#FE4319"/>
<path d="M747.653 576.504L629.124 117.489C617.826 73.7188 578.333 43.1343 533.191 43.1343H1V1H1494.6V43.1343H970.192C925.595 43.1343 886.498 72.9256 874.656 115.952L747.653 576.504Z" fill="#FF5313"/>
<path d="M747.653 576.504L665 104.997C656.675 57.559 615.497 23.0089 567.382 23.0089H1V1H1494.6V23.0089H935.902C888.381 23.0089 847.55 56.7659 838.581 103.461L747.653 576.504Z" fill="#FF6931"/>
<path d="M747.653 576.504L670.5 1H825.103L747.653 576.504Z" fill="#FF8A00"/>
<path d="M747.653 576.504L699.241 1H796.363L747.653 576.504Z" fill="#FFD644"/>
<path d="M747.653 576.504L723.521 1H772.082L747.653 576.504Z" fill="#FFFAD1"/>
<path d="M747.653 576.504L739.378 1H756.226L747.653 576.504Z" fill="white"/>
</g>
<defs>
<filter id="filter0_f_7121_11243" x="0" y="0" width="1496" height="578" filterUnits="userSpaceOnUse" color-interpolation-filters="sRGB">
<feFlood flood-opacity="0" result="BackgroundImageFix"/>
<feBlend mode="normal" in="SourceGraphic" in2="BackgroundImageFix" result="shape"/>
<feGaussianBlur stdDeviation="0.5" result="effect1_foregroundBlur_7121_11243"/>
</filter>
</defs>
</svg>
