<svg width="500" height="500" viewBox="0 0 500 500" fill="none" xmlns="http://www.w3.org/2000/svg">
  <path d="M106.766 71.0971C105.412 75.7926 100.235 78.1181 95.7226 76.2479C91.6551 74.562 89.6166 70.0474 90.6154 65.7568C91.2499 63.031 91.7071 60.4346 91.987 57.9679C92.5377 53.269 92.5317 49.0922 91.9692 45.4374C91.4067 41.7827 90.2929 38.7548 88.6277 36.3538C87.0144 33.9059 84.9068 32.1427 82.305 31.0643C77.6827 29.1484 72.5707 29.9038 66.9692 33.3303C61.3918 36.6984 55.6464 42.6658 49.7331 51.2324C43.844 59.7406 38.1068 70.7411 32.5215 84.2339C26.8395 97.9604 23.0624 109.944 21.1902 120.186C19.3698 130.381 19.2397 138.607 20.8 144.865C22.412 151.076 25.5154 155.134 30.1101 157.039C32.6565 158.094 35.327 158.38 38.1216 157.896C40.9681 157.365 43.8573 156.064 46.7893 153.995C49.749 151.937 52.684 149.116 55.5944 145.532C57.119 143.678 58.6044 141.624 60.0505 139.369C62.44 135.643 67.1102 133.923 71.1783 135.663C75.6559 137.579 77.6252 142.882 75.2151 147.116C72.2542 152.318 69.0862 157.157 65.711 161.632C60.7063 168.317 55.4692 173.879 49.9997 178.319C44.5544 182.7 39.0909 185.636 33.6092 187.128C28.1518 188.561 22.8905 188.228 17.8252 186.129C10.352 183.031 5.19259 176.616 2.34704 166.882C-0.498514 157.149 -0.7566 144.69 1.57277 129.505C3.90213 114.321 9.05629 97.0906 17.0353 77.8152C25.0384 58.4813 33.5832 42.6567 42.6697 30.3413C51.7803 17.9675 60.7808 9.34605 69.671 4.47687C78.5612 -0.392297 86.7153 -1.28958 94.1332 1.78501C98.8662 3.74678 102.687 6.97274 105.595 11.4629C108.503 15.953 110.425 21.5738 111.359 28.3253C112.318 35.0184 112.201 42.7029 111.009 51.3789C110.196 57.5382 108.781 64.1109 106.766 71.0971Z" fill="#ffffff"/>
  <path d="M77.7956 100.304C79.7796 95.5111 85.2708 93.2351 90.0606 95.2203L90.5202 95.4109C95.31 97.3961 97.5845 102.891 95.6006 107.684C93.6166 112.477 88.1254 114.753 83.3356 112.767L82.8759 112.577C78.0862 110.592 75.8116 105.097 77.7956 100.304Z" fill="#ffffff"/>
  <path transform="translate(144 144)" d="M106.766 71.0971C105.412 75.7926 100.235 78.1181 95.7226 76.2479C91.6551 74.562 89.6166 70.0474 90.6154 65.7568C91.2499 63.031 91.7071 60.4346 91.987 57.9679C92.5377 53.269 92.5317 49.0922 91.9692 45.4374C91.4067 41.7827 90.2929 38.7548 88.6277 36.3538C87.0144 33.9059 84.9068 32.1427 82.305 31.0643C77.6827 29.1484 72.5707 29.9038 66.9692 33.3303C61.3918 36.6984 55.6464 42.6658 49.7331 51.2324C43.844 59.7406 38.1068 70.7411 32.5215 84.2339C26.8395 97.9604 23.0624 109.944 21.1902 120.186C19.3698 130.381 19.2397 138.607 20.8 144.865C22.412 151.076 25.5154 155.134 30.1101 157.039C32.6565 158.094 35.327 158.38 38.1216 157.896C40.9681 157.365 43.8573 156.064 46.7893 153.995C49.749 151.937 52.684 149.116 55.5944 145.532C57.119 143.678 58.6044 141.624 60.0505 139.369C62.44 135.643 67.1102 133.923 71.1783 135.663C75.6559 137.579 77.6252 142.882 75.2151 147.116C72.2542 152.318 69.0862 157.157 65.711 161.632C60.7063 168.317 55.4692 173.879 49.9997 178.319C44.5544 182.7 39.0909 185.636 33.6092 187.128C28.1518 188.561 22.8905 188.228 17.8252 186.129C10.352 183.031 5.19259 176.616 2.34704 166.882C-0.498514 157.149 -0.7566 144.69 1.57277 129.505C3.90213 114.321 9.05629 97.0906 17.0353 77.8152C25.0384 58.4813 33.5832 42.6567 42.6697 30.3413C51.7803 17.9675 60.7808 9.34605 69.671 4.47687C78.5612 -0.392297 86.7153 -1.28958 94.1332 1.78501C98.8662 3.74678 102.687 6.97274 105.595 11.4629C108.503 15.953 110.425 21.5738 111.359 28.3253C112.318 35.0184 112.201 42.7029 111.009 51.3789C110.196 57.5382 108.781 64.1109 106.766 71.0971Z" fill="#ffffff"/>
  <path transform="translate(144 144)" d="M77.7956 100.304C79.7796 95.5111 85.2708 93.2351 90.0606 95.2203L90.5202 95.4109C95.31 97.3961 97.5845 102.891 95.6006 107.684C93.6166 112.477 88.1254 114.753 83.3356 112.767L82.8759 112.577C78.0862 110.592 75.8116 105.097 77.7956 100.304Z" fill="#ffffff"/>
  <path transform="translate(288 288)" d="M106.766 71.0971C105.412 75.7926 100.235 78.1181 95.7226 76.2479C91.6551 74.562 89.6166 70.0474 90.6154 65.7568C91.2499 63.031 91.7071 60.4346 91.987 57.9679C92.5377 53.269 92.5317 49.0922 91.9692 45.4374C91.4067 41.7827 90.2929 38.7548 88.6277 36.3538C87.0144 33.9059 84.9068 32.1427 82.305 31.0643C77.6827 29.1484 72.5707 29.9038 66.9692 33.3303C61.3918 36.6984 55.6464 42.6658 49.7331 51.2324C43.844 59.7406 38.1068 70.7411 32.5215 84.2339C26.8395 97.9604 23.0624 109.944 21.1902 120.186C19.3698 130.381 19.2397 138.607 20.8 144.865C22.412 151.076 25.5154 155.134 30.1101 157.039C32.6565 158.094 35.327 158.38 38.1216 157.896C40.9681 157.365 43.8573 156.064 46.7893 153.995C49.749 151.937 52.684 149.116 55.5944 145.532C57.119 143.678 58.6044 141.624 60.0505 139.369C62.44 135.643 67.1102 133.923 71.1783 135.663C75.6559 137.579 77.6252 142.882 75.2151 147.116C72.2542 152.318 69.0862 157.157 65.711 161.632C60.7063 168.317 55.4692 173.879 49.9997 178.319C44.5544 182.7 39.0909 185.636 33.6092 187.128C28.1518 188.561 22.8905 188.228 17.8252 186.129C10.352 183.031 5.19259 176.616 2.34704 166.882C-0.498514 157.149 -0.7566 144.69 1.57277 129.505C3.90213 114.321 9.05629 97.0906 17.0353 77.8152C25.0384 58.4813 33.5832 42.6567 42.6697 30.3413C51.7803 17.9675 60.7808 9.34605 69.671 4.47687C78.5612 -0.392297 86.7153 -1.28958 94.1332 1.78501C98.8662 3.74678 102.687 6.97274 105.595 11.4629C108.503 15.953 110.425 21.5738 111.359 28.3253C112.318 35.0184 112.201 42.7029 111.009 51.3789C110.196 57.5382 108.781 64.1109 106.766 71.0971Z" fill="#ffffff"/>
  <path transform="translate(288 288)" d="M77.7956 100.304C79.7796 95.5111 85.2708 93.2351 90.0606 95.2203L90.5202 95.4109C95.31 97.3961 97.5845 102.891 95.6006 107.684C93.6166 112.477 88.1254 114.753 83.3356 112.767L82.8759 112.577C78.0862 110.592 75.8116 105.097 77.7956 100.304Z" fill="#ffffff"/>
</svg>
